<?xml version="1.0" encoding="utf-8"?>
<!-- Generator: Adobe Illustrator 22.0.1, SVG Export Plug-In . SVG Version: 6.00 Build 0)  -->
<svg version="1.1" id="Layer_1" xmlns="http://www.w3.org/2000/svg" xmlns:xlink="http://www.w3.org/1999/xlink" x="0px" y="0px"
	 viewBox="0 0 474.8 115.5" style="enable-background:new 0 0 474.8 115.5;" xml:space="preserve">
<style type="text/css">
	.st0{fill:#3A1D93;}
	.st1{fill:none;}
	.st2{fill:#595959;stroke:#595959;stroke-miterlimit:10;}
	.st3{font-family:'ComicSansMS-Italic';}
	.st4{font-size:23.4749px;}
</style>
<g>
	<g>
		<path class="st0" d="M205,57.3c-0.3-7.1-1-14.2-2.2-21.2c-0.6-3.5-1.3-7-2.1-10.4c-0.4-1.7-0.8-3.4-1.4-5c-0.6-1.6-1.5-3.1-2.6-4
			c-1.2-0.9-2.7-1.2-4.1-0.7c-1.4,0.5-2.6,1.6-3.5,3c-1,1.3-1.7,2.9-2.3,4.5c-0.6,1.6-1.3,3.3-1.8,5c-2.3,6.7-3.8,13.6-4.7,20.5
			c-0.4,3.5-0.6,7-0.7,10.5c-0.1,3.5,0.1,7,0.4,10.5l0.2,2.6l0.3,2.6c0.2,1.7,0.5,3.4,0.9,5.1c0.7,3.2,2,6.3,4.2,8.3
			c2.2,2.1,5.2,3.2,7.9,2.2c2.7-0.9,5.3-3.6,7.6-6.1c4.7-5.1,8.4-11.2,10.9-17.9l0.4,0.1c-1.4,7-4.6,13.8-9.1,19.6
			c-1.1,1.5-2.3,2.8-3.6,4.2c-1.3,1.3-2.9,2.6-4.9,3.4c-1,0.4-2.1,0.7-3.2,0.7c-1.1,0.1-2.2-0.1-3.2-0.3c-2.1-0.5-3.9-1.6-5.5-2.9
			c-3.2-2.8-4.7-6.7-5.5-10.4c-0.4-1.8-0.7-3.7-0.8-5.5l-0.3-2.7l-0.2-2.7c-0.3-7.3,0.1-14.5,1.1-21.7c1.1-7.1,2.9-14.2,5.4-21
			c0.6-1.7,1.3-3.4,2-5c0.7-1.7,1.6-3.4,2.8-4.9c1.2-1.5,2.6-3,4.7-3.6c1-0.3,2.1-0.4,3.2-0.2c1,0.2,2,0.7,2.8,1.4
			c1.6,1.4,2.4,3.2,3.1,4.9c0.6,1.8,0.9,3.6,1.3,5.3c0.7,3.5,1.2,7.1,1.7,10.6c0.9,7.1,1.4,14.2,1.4,21.4L205,57.3z"/>
	</g>
	<g>
		<path class="st0" d="M215.8,78.9c0.2,0.6,0.1,1.2-0.2,1.8c-0.3,0.5-0.8,1-1.5,1l-0.3,0l-0.1-0.3c-0.5-2.1-0.9-4.2-1.2-6.4
			c-0.3-2.2-0.4-4.4-0.3-6.6c0.1-2.2,0.5-4.5,1.3-6.6c0.8-2.1,2-4.2,3.7-5.9l0.8-0.8l1,0.7c1.5,1.1,2.7,2.5,3.6,4
			c0.9,1.5,1.6,3.1,2.2,4.7c1.1,3.2,1.8,6.4,2.3,9.7c0.4,3.3,0.5,6.6,0.4,9.8c-0.2,3.3-0.5,6.6-1.4,9.7l-0.4,0
			c-0.5-3.2-0.8-6.4-1.3-9.6c-0.2-1.6-0.5-3.1-0.7-4.7l-0.8-4.7l-0.8-4.7c-0.3-1.6-0.5-3.1-0.9-4.6c-0.7-2.9-2-5.7-4.1-7.5l1.9-0.1
			c-1.5,1.3-2.6,2.9-3.4,4.7c-0.8,1.8-1.3,3.8-1.6,5.9c-0.6,4.1-0.3,8.4,0.2,12.6L214,81c0.8,0,1.6-1,1.4-1.9L215.8,78.9z"/>
	</g>
	<g>
		<path class="st0" d="M213.2,81C213.2,81,213.2,81.1,213.2,81c0,0.1-0.1,0.1-0.1,0.2c0,0,0,0.1,0,0.1c0,0,0,0,0,0c0,0,0,0,0,0
			c0.1,0.1,0.5,0,0.9-0.1c0.9-0.2,1.8-0.5,2.6-0.8c1.7-0.5,3.4-1.2,5.1-1.9c0.8-0.4,1.6-0.8,2.4-1.2c0.8-0.4,1.6-0.8,2.4-1.1
			c1.7-0.5,3.5-1,5.6-1l0.2,0.3c-1,1.9-2.5,3.2-4.1,4.3c-1.6,1.1-3.7,1.3-5.5,1.7c-1.9,0.4-3.8,0.7-5.7,0.8c-1,0-1.9,0-2.8,0
			c-0.2,0-0.5,0-0.8-0.1c-0.3-0.1-0.6-0.2-0.9-0.5c-0.1-0.1-0.1-0.2-0.1-0.3c0-0.1,0-0.3,0-0.4c0.1-0.2,0.2-0.4,0.4-0.5
			c0.2-0.1,0.3-0.1,0.5-0.1c0.1,0,0.2,0,0.3,0.2c0.1,0.1,0.1,0.2,0.1,0.3L213.2,81z"/>
	</g>
	<g>
		<path class="st0" d="M231.9,71.4c-1.2-1.2-1.5-3.4-0.5-5l0.8-1.3l0.5,1.6c0.6,2.2,1.2,4.4,1.8,6.7c0.6,2.2,1,4.5,1.6,6.7
			c0.3,1.1,0.6,2.2,0.8,3.4c0.2,1.1,0.2,2.3,0.3,3.4c0,2.3-0.2,4.6-0.8,7l-0.4,0c-1.2-2.2-1.9-4.4-2.5-6.6c-0.3-1.1-0.5-2.2-0.7-3.4
			c-0.1-1.1-0.2-2.3-0.2-3.4c-0.1-2.3-0.4-4.5-0.5-6.8l-0.6-6.8l1.2,0.3c-0.9,1-1.1,2.7-0.3,4L231.9,71.4z"/>
	</g>
	<g>
		<path class="st0" d="M241.1,78.3c-0.8,1.4-0.7,3.1,0,4.5c0.7,1.4,1.9,2.5,3.3,2.9c1.4,0.5,3,0.3,4.4-0.2c1.4-0.5,2.7-1.3,3.7-2.4
			c1.1-1.1,1.9-2.4,2.6-3.8c0.4-0.7,0.7-1.4,1-2.1c0.3-0.7,0.5-1.4,0.6-2.2c0.3-1.5,0.4-3,0.3-4.4c-0.2-1.4-0.7-2.7-1.5-3.5
			c-0.8-0.8-2-1.2-3.2-1c-1.2,0.1-2.5,0.8-3.6,1.6c-1.2,0.8-2.3,1.8-3.3,2.9c-1.1,1.1-2,2.2-2.8,3.4c-0.8,1.2-1.4,2.5-1.7,3.8
			c-0.2,0.7-0.2,1.4-0.3,2c0,0.7,0.1,1.3,0.3,2c0.4,1.3,1.1,2.6,2.2,3.6c0.5,0.5,1.1,0.9,1.8,1.2c0.7,0.3,1.4,0.5,2.3,0.5l0.1,0.4
			c-0.8,0.3-1.7,0.4-2.6,0.3c-0.9-0.1-1.8-0.5-2.6-0.9c-0.8-0.5-1.5-1.1-2.1-1.8c-0.6-0.7-1.1-1.5-1.6-2.3c-0.4-0.9-0.7-1.8-0.9-2.8
			c-0.1-1-0.1-2,0-2.9c0.2-1.9,0.9-3.7,1.8-5.3c0.9-1.6,2-3,3.3-4.3c1.2-1.2,2.6-2.4,4.2-3.4c1.6-0.9,3.4-1.7,5.5-1.8
			c2.1-0.1,4.3,0.8,5.7,2.4c0.7,0.8,1.2,1.7,1.5,2.6c0.3,0.9,0.5,1.9,0.5,2.8c0.1,1.8-0.1,3.6-0.6,5.3c-0.2,0.9-0.6,1.7-0.9,2.5
			c-0.4,0.8-0.8,1.5-1.2,2.3c-0.9,1.5-1.9,2.9-3.2,4.1c-2.6,2.4-6.5,3.6-9.9,2.3c-1.7-0.6-3-2.1-3.6-3.7c-0.6-1.6-0.6-3.6,0.5-5
			L241.1,78.3z"/>
	</g>
	<g>
		<path class="st0" d="M274.2,3.6c-0.2,8.6-0.3,17.2-0.1,25.9c0.1,8.6,0.3,17.2,0.7,25.8c0.4,8.6,1.3,17.2,1.5,25.8
			c0.1,4.3,0.3,8.6,0.4,12.9c0.1,2.2,0.1,4.3,0.1,6.5c0,2.2,0,4.3-0.1,6.5l-0.4,0c-1-4.2-1.8-8.5-2.4-12.8c-0.3-2.1-0.6-4.3-0.9-6.4
			l-0.7-6.5c-0.8-8.6-0.7-17.3-0.7-25.9c0-8.6,0.2-17.3,0.5-25.9c0.4-8.6,0.9-17.3,1.7-25.9L274.2,3.6z"/>
	</g>
	<g>
		<path class="st0" d="M291.6,32.1c0.8,6.3,1.6,12.6,2.3,18.9l2.1,18.9c0.7,6.3,1.7,12.6,1.9,18.9c0.1,3.2,0.2,6.3,0.2,9.5
			c0,3.2-0.1,6.4-0.4,9.6l-0.4,0c-0.8-3.1-1.4-6.2-2-9.4c-0.5-3.1-1-6.3-1.4-9.4c-0.8-6.3-0.8-12.6-1.2-19l-1-19
			c-0.2-6.3-0.6-12.7-0.8-19L291.6,32.1z"/>
	</g>
	<g>
		<path class="st0" d="M272.1,77.9c0.1,0.1,0.2,0.2,0.2,0.4c0,0.2-0.1,0.3-0.2,0.3c-0.2,0.1-0.4,0.2-0.6,0.2c-0.2,0-0.6-0.2-0.6-0.5
			c-0.1-0.2,0-0.5,0.1-0.7c0.4-0.8,1.1-1,1.6-1.3l3-1.8c2-1.2,4.1-2.4,6.2-3.5c1-0.6,2-1.2,3-1.8c1-0.6,2.1-1.1,3.2-1.5
			c1.1-0.4,2.3-0.7,3.5-1c1.2-0.2,2.4-0.4,3.7-0.4l0.2,0.4c-0.8,1-1.7,1.8-2.7,2.6c-0.9,0.8-1.9,1.4-3,2c-1,0.6-2.1,1.1-3.2,1.5
			c-1.1,0.4-2.3,0.7-3.4,1.2c-2.2,0.8-4.4,1.7-6.7,2.5l-3.4,1.2c-0.6,0.2-1.1,0.4-1.3,0.6c0,0.1-0.1,0.1-0.1,0.2c0,0-0.1,0,0,0
			c0.1,0,0.2,0,0.3,0c0,0,0,0,0,0c0,0,0,0,0,0L272.1,77.9z"/>
	</g>
	<g>
		<path class="st0" d="M311.4,78c0,0.2,0.1,0.3,0.2,0.3c0.1,0.1,0.3,0.1,0.4,0.1c0.1,0,0.3,0,0.3-0.1c0.1-0.1,0-0.1,0-0.2
			c0-0.2,0-0.4,0-0.7c-0.1-0.3-0.1-0.7-0.2-1.1l1.6,1.4c-0.4,0.1-0.7,0.3-1,0.6c-0.3,0.3-0.5,0.6-0.8,0.7c-0.3,0.2-0.7,0.3-1.2,0.5
			c-0.5,0.2-1,0.4-1.7,0.7l-0.4-0.1c-0.5-0.7-0.5-1.5-0.4-2.2c0.1-0.7,0.5-1.4,1-2c0.5-0.5,1.2-0.9,1.9-1c0.7-0.1,1.4-0.2,2.2-0.2
			l1.8,0.1l-0.2,1.4c-0.1,0.5-0.1,1-0.3,1.6c-0.2,0.6-0.5,1.2-1.2,1.6c-0.3,0.2-0.8,0.4-1.2,0.3c-0.4,0-0.7-0.2-0.9-0.4
			c-0.3-0.2-0.5-0.4-0.6-0.8c-0.1-0.3,0-0.7,0.2-0.9L311.4,78z"/>
	</g>
	<g>
		<path class="st0" d="M349.5,27.7c-7.6,0.9-14.9,3.9-21.1,8.4c-3.1,2.2-5.9,4.9-8.3,7.8l-0.9,1.1c-0.3,0.4-0.6,0.8-0.8,1.1
			l-0.8,1.1l-0.8,1.2l-0.8,1.2l-0.7,1.2c-0.5,0.8-0.9,1.7-1.2,2.5c-0.3,0.8-0.5,1.6-0.4,2.4c0.1,0.7,0.4,1.4,0.9,1.9
			c1,1.1,2.8,1.5,4.6,1.7c0.9,0.1,1.8,0,2.7-0.1l2.8-0.4c1.9-0.3,3.7-0.7,5.6-1.2c7.4-1.8,14.6-4.6,22.3-6.3
			c3.8-0.9,7.8-1.5,11.8-1.5c1,0,2.1,0,3.2,0.2c1.1,0.2,2.3,0.6,3.4,1.3c1.1,0.7,2,1.7,2.5,2.9c0.6,1.2,0.8,2.4,0.8,3.6
			c0.1,2.3-0.5,4.5-1.3,6.4c-0.8,1.9-1.7,3.7-2.7,5.5c-2.1,3.5-4.7,6.6-7.6,9.4c-5.9,5.5-13.1,9.5-20.9,11.3
			c-1.9,0.4-3.9,0.8-5.9,0.9c-0.5,0-1,0.1-1.6,0.1c-0.6,0-1.2-0.1-1.9-0.4c-0.7-0.3-1.3-1.1-1.4-1.8c-0.1-0.7,0-1.3,0.1-1.9
			c1.1-3.9,3.1-7.4,5.9-10.2l0.3,0.3c-2.3,3.1-3.8,6.7-4.4,10.3c-0.1,0.4-0.1,0.8,0,1c0.1,0.2,0.2,0.3,0.4,0.4
			c0.5,0.2,1.3,0.1,2.3-0.1c1.8-0.3,3.7-0.8,5.5-1.3c7.1-2.2,13.6-6.2,18.8-11.4c2.6-2.6,4.9-5.5,6.8-8.7c0.9-1.6,1.8-3.2,2.5-4.8
			c0.7-1.6,1.1-3.3,1.1-4.8c0-1.5-0.5-2.7-1.5-3.5c-1-0.8-2.7-1.1-4.5-1.1c-3.7-0.1-7.4,0.4-11.1,1.1c-7.4,1.5-14.7,4-22.4,5.7
			c-1.9,0.4-3.8,0.8-5.8,1.1l-2.9,0.3c-1,0.1-2.1,0.1-3.1,0c-1-0.1-2.1-0.3-3.1-0.7c-1-0.4-2-0.9-2.9-1.8c-0.8-0.9-1.3-2.1-1.4-3.3
			c-0.1-1.2,0.3-2.3,0.7-3.3c3.5-7.2,9-13.1,15.4-17.5c6.5-4.4,14-7.2,21.7-7.8L349.5,27.7z"/>
	</g>
	<g>
		<path class="st0" d="M371.7,84.7c0.1,0.1,0.2,0.2,0.2,0.5c-0.1,0.3-0.3,0.2-0.4,0.3c-0.3,0-0.5,0-0.7-0.1
			c-0.2-0.1-0.4-0.2-0.6-0.4c-0.1-0.1-0.2-0.3-0.2-0.3l-0.1-0.3c-0.3-0.7-0.5-1.5-0.8-2.3c-0.5-1.5-0.8-3.1-1.1-4.7
			c-0.5-3.2-0.6-6.4-0.2-9.7c0.4-3.2,1.1-6.4,2.4-9.5c0.3-0.7,0.6-1.5,1.1-2.4c0.3-0.4,0.6-0.8,1.1-1.2c0.5-0.4,1.1-0.7,1.8-0.8
			c0.7-0.1,1.4,0,2,0.4c0.6,0.3,1,0.7,1.4,1.1c0.7,0.8,1.1,1.7,1.4,2.5c1.2,3,2.3,5.9,3.4,8.9c1.1,3,2.2,6,3.1,9
			c0.9,3,1.8,6.1,2.5,9.2c0.8,3.1,1.4,6.2,1.9,9.4l-0.4,0.1c-1.6-2.8-2.9-5.7-4.2-8.6c-1.3-2.9-2.5-5.8-3.6-8.8c-1.1-3-2.1-6-3-9
			c-0.9-3-1.8-6.1-2.7-9.1c-0.2-0.6-0.5-1.3-0.8-1.7c-0.1-0.2-0.3-0.3-0.4-0.4c-0.1-0.1-0.2-0.1-0.3-0.1c-0.2,0-0.5,0.2-0.9,0.7
			c-0.4,0.5-0.7,1.1-1,1.8c-1.3,2.8-2.2,5.7-2.8,8.7c-0.6,3-0.8,6.1-0.5,9.3c0.1,1.6,0.3,3.1,0.7,4.6c0.1,0.8,0.3,1.5,0.5,2.3
			c0.1,0.2,0.1,0.4,0.2,0.5c0.1,0.1,0.2,0.2,0.3,0.3c0.1,0.1,0.3,0.1,0.5,0.1c0.1,0,0.1,0,0.1,0c0,0.1,0,0-0.1-0.1L371.7,84.7z"/>
	</g>
	<g>
		<path class="st0" d="M364.1,74.9c-0.1-0.1,0,0-0.1,0c-0.1,0-0.2,0.1-0.2,0.2c-0.1,0.1-0.1,0.2,0,0.2c0,0,0.1,0.1,0.1,0.1
			c0.3,0.2,0.8,0.1,1.4,0c1.2-0.2,2.4-0.4,3.6-0.7c2.4-0.5,4.7-1.1,7-1.9c1.1-0.4,2.2-0.8,3.3-1.3c1.1-0.5,2.2-0.9,3.3-1.2
			c1.2-0.3,2.3-0.6,3.5-0.9c1.2-0.3,2.4-0.5,3.8-0.6l0.2,0.4c-0.8,1.1-1.8,2-2.8,2.8c-1,0.8-2.1,1.5-3.3,2c-1.1,0.6-2.4,1-3.6,1.3
			c-1.3,0.3-2.5,0.4-3.8,0.7c-2.5,0.4-5,0.7-7.5,0.7c-1.3,0-2.5,0-3.8-0.1c-0.6-0.1-1.4,0-2.1-0.6c-0.1-0.2-0.3-0.4-0.3-0.7
			c0-0.3,0.2-0.5,0.3-0.6c0.2-0.1,0.3-0.2,0.6-0.3c0.2-0.1,0.6,0.2,0.6,0.4L364.1,74.9z"/>
	</g>
	<g>
		<path class="st0" d="M395.9,80.1c-0.4,0.2-0.9,0-1.2-0.3c-0.3-0.3-0.4-0.7-0.6-1c-0.1-0.4-0.2-0.8-0.2-1.1l-0.1-1.1l-0.3-4.2
			l-0.7-8.5l1.9-0.3c0.6,2.1,1.4,4.1,2.5,6c1.1,1.9,2.3,3.8,3.8,5c1.5,1.3,3.1,1.5,4.6,0.6c0.7-0.4,1.4-1,1.9-1.8
			c0.5-0.7,0.8-1.6,1-2.5c0.5-1.9,0.6-4.1,0.8-6.3c0.2-2.2,0.5-4.4,0.5-6.5c0-1.1,0-2.2-0.1-3.2c0-1.1-0.2-2.1-0.4-3.2
			c-0.4-2.1-1.3-4.1-2.6-5.9l0.3-0.3c2,1.3,3.6,3.2,4.6,5.5c0.5,1.1,0.9,2.3,1.2,3.5c0.3,1.2,0.5,2.4,0.6,3.6c0.2,2.4,0.2,4.7,0,7.1
			c-0.1,1.2-0.2,2.3-0.4,3.5c-0.2,1.2-0.4,2.4-0.8,3.6c-0.4,1.2-1,2.5-1.9,3.6c-0.9,1.1-1.9,2-3.3,2.6c-1.3,0.6-2.9,0.9-4.3,0.5
			c-1.5-0.3-2.7-1.1-3.6-2c-0.9-0.9-1.7-1.9-2.3-2.9c-0.6-1-1.2-2-1.7-3.1c-1-2.1-1.8-4.4-2.2-6.7l1.9-0.3l-0.1,8.5l0,4.3l0,1.1
			c0,0.4,0,0.7,0.1,1c0.1,0.6,0.5,1.3,1.1,1.1L395.9,80.1z"/>
	</g>
	<g>
		<path class="st0" d="M418.9,87.3c0,0.1,0,0.2-0.1,0.3c-0.1,0.1-0.2,0.2-0.4,0.2c-0.3,0-0.4-0.1-0.6-0.2c-0.3-0.2-0.6-0.5-0.7-0.8
			c-0.2-0.4-0.2-0.7-0.2-1l-0.1-1c-0.2-1.3-0.3-2.6-0.5-3.8c-0.3-2.6-0.6-5.1-0.8-7.7c-0.4-5.2-0.6-10.3-0.7-15.5
			c0-5.2-0.2-10.4,0.5-15.6c0.2-1.3,0.4-2.6,0.6-3.9c0.3-1.3,0.5-2.6,0.8-3.8c0.6-2.5,1.3-5.1,2.3-7.5l0.4,0.1
			c0.2,2.6,0.2,5.2,0.1,7.8c0,2.6-0.1,5.1-0.2,7.7c-0.2,5.1-1,10.2-1.3,15.3c-0.3,5.1-0.5,10.2-0.5,15.4c0,2.6,0,5.1,0,7.7
			c0,1.3,0.1,2.6,0.1,3.9l0,1c0,0.3,0,0.7,0.1,0.9c0.1,0.2,0.3,0.5,0.5,0.6c0.1,0.1,0.2,0.1,0.3,0.2c0,0,0,0,0.1-0.1L418.9,87.3z"/>
	</g>
	<g>
		<path class="st0" d="M409,74.7c1.4-0.8,2.8-1.4,4.1-2.1c1.4-0.7,2.8-1.3,4.2-1.9c1.4-0.6,2.7-1.6,4.2-1.7c1.5-0.2,3.1-0.2,4.9,0.4
			l0.1,0.4c-1.1,1.5-2.5,2.4-3.8,3.1c-1.4,0.7-3,0.7-4.5,1c-1.5,0.3-3,0.6-4.5,0.8c-1.5,0.2-3.1,0.4-4.6,0.6L409,74.7z"/>
	</g>
	<g>
		<path class="st0" d="M424.5,69.8c-0.6,1.1-0.6,2.4-0.2,3.5c0.4,1.1,1.1,2.1,2.1,2.8c1.9,1.4,4.5,1.6,6.7,1
			c4.6-1.2,6.9-6.6,5.9-10.8c-0.5-2.1-1.9-4-3.6-4.7c-1.6-0.7-3.3-0.3-4.8,1.1c-0.7,0.6-1.4,1.5-1.8,2.4c-0.4,0.9-0.7,2-0.8,3.2
			c-0.2,2.3,0.3,4.8,0.7,7.4l-0.4,0.2c-1.5-2.2-2.8-4.6-3.2-7.5c-0.2-1.4-0.2-2.9,0.2-4.4c0.4-1.5,1.2-2.9,2.3-4.1
			c1.1-1.2,2.5-2.2,4.3-2.5c1.7-0.4,3.6-0.1,5.1,0.7c1.5,0.8,2.6,2.1,3.4,3.4c0.8,1.3,1.3,2.7,1.6,4.2c0.4,3-0.2,5.9-1.7,8.4
			c-0.8,1.2-1.8,2.3-2.9,3.2c-1.2,0.9-2.5,1.4-3.9,1.7c-2.8,0.6-5.8,0-8-2c-1-1-1.8-2.2-2.1-3.5c-0.3-1.3-0.1-2.8,0.7-4L424.5,69.8z
			"/>
	</g>
	<g>
		<path class="st0" d="M459.9,60.7c0.4-1.1,0.3-2.2-0.2-3.2c-0.4-1-1.2-1.9-2.1-2.5c-0.9-0.6-1.9-1-2.9-1.1
			c-1.1-0.1-2.1,0.1-3.1,0.5c-2,0.8-3.7,2.3-5,4.1c-1.3,1.7-2.1,3.8-1.6,5.5c0.5,1.8,2.2,3.2,4.1,3.8c1.9,0.7,4.1,0.7,6.4,0.6
			c4.6-0.3,9.3-0.6,13.9-0.9l5.8-0.4l-4.4,4c-1.9,1.7-4,3.4-6.1,4.9c-2.1,1.5-4.4,2.9-6.6,4.1l-1.7,0.9c-0.6,0.3-1.1,0.6-1.8,0.9
			c-0.7,0.3-1.5,0.5-2.5,0.5c-0.9,0-1.8-0.4-2.5-1c-1.3-1.2-1.7-2.7-1.9-4c-0.2-1.4-0.1-2.7,0.2-4l0.4,0c0.1,1.3,0.4,2.5,0.8,3.6
			c0.4,1.1,1,2.2,1.8,2.5c0.4,0.2,0.7,0.2,1.1,0.2c0.4,0,0.7-0.2,1.2-0.5c0.4-0.3,1-0.6,1.5-1l1.5-1.1c2.1-1.5,4.1-2.9,6-4.5
			c2-1.5,3.9-3.1,5.9-4.7l1.4,3.6l-14,0c-2.4,0-4.9-0.1-7.4-1.1c-1.2-0.5-2.4-1.3-3.3-2.2c-0.9-1-1.7-2.2-2-3.5
			c-0.4-1.4-0.2-2.9,0.3-4.1c0.5-1.2,1.2-2.3,2-3.3c1.6-1.9,3.6-3.5,6-4.2c1.2-0.4,2.5-0.5,3.7-0.4c1.3,0.2,2.5,0.7,3.4,1.5
			c1,0.8,1.7,1.8,2.1,3c0.4,1.2,0.4,2.5-0.1,3.6L459.9,60.7z"/>
	</g>
</g>
<rect x="13.1" y="22.7" class="st1" width="470.5" height="45"/>
<text transform="matrix(1 0 0 1 13.0624 40.9438)" class="st2 st3 st4">altered by:            </text>
</svg>
