<?xml version="1.0" encoding="utf-8"?>
<!-- Generator: Adobe Illustrator 21.1.0, SVG Export Plug-In . SVG Version: 6.00 Build 0)  -->
<svg version="1.1" id="Camada_1" xmlns="http://www.w3.org/2000/svg" xmlns:xlink="http://www.w3.org/1999/xlink" x="0px" y="0px"
	 viewBox="0 0 595.3 841.9" style="enable-background:new 0 0 595.3 841.9;" xml:space="preserve">
<g>
	<g>
		<path d="M497.5,405l-29.8,41.8h67.7V498c-16.3,12.5-39,20.7-64,20.7c-54.1,0-90.1-41.4-90.1-97.7v-0.8c0-52.4,37.1-96.5,85.9-96.5
			c33.7,0,53.7,11.3,74.2,29.3l29.5-36.3c-27.2-23.8-55.6-37.1-101.8-37.1c-44.6,0-82,20.2-106.3,51.4l-20.8-50.4h-54.8L172.4,559.4
			V339.1h82.2l23.3-56.6H14.6v56.6h98.3v222.3h58.6h0.9h59.7l15.7-39.7l30.3-77.1H278l35.9-90.4l19.7,49.5c-0.6,5.7-1,11.4-1,17.2
			v0.8c0,79.7,54.5,140.7,137.4,140.7c46.9,0,84.4-19.5,110.5-42.6V405H497.5z"/>
	</g>
</g>
</svg>
