<?xml version="1.0" encoding="utf-8"?>
<!-- Generator: Adobe Illustrator 21.1.0, SVG Export Plug-In . SVG Version: 6.00 Build 0)  -->
<svg version="1.1" xmlns="http://www.w3.org/2000/svg" xmlns:xlink="http://www.w3.org/1999/xlink" x="0px" y="0px"
	 viewBox="0 0 595.3 841.9" style="enable-background:new 0 0 595.3 841.9;" xml:space="preserve">
<g id="Camada_3">
	<path d="M108.5,91.7c-0.1,10.2-0.2,20.4-0.3,30.7c18.6,0.1,37.1,0.2,55.7,0.3c-0.1,40.6-0.2,81.1-0.3,121.7
		c10.4,0.1,20.9,0.2,31.3,0.3c0.3-40.7,0.7-81.3,1-122c15.7,0.1,31.3,0.2,47,0.3c4-10.1,8-20.2,12-30.3
		C206,92.4,157.3,92,108.5,91.7z"/>
	<path d="M263.5,91.7c-21.7,50-43.7,103-65.3,153c10.8,0.2,20.9-0.6,31.7-0.3c15.3-37.8,30.7-75.6,46-113.3
		c3.9,9.4,7.8,18.9,11.7,28.3c-0.2,2.5-0.1,5.8,0,9.7c1.3,55.7,39.3,75.7,75.7,76.3c33.2,0.6,54.3-13.6,62.3-23
		c-0.1-20.8-0.2-41.6-0.3-62.3c-15,0.2-30,0.4-45,0.7c-5.6,7.2-11.1,14.4-16.7,21.7c12.6,0,25.1,0,37.7,0c0.1,9.2,0.2,18.4,0.3,27.7
		c-5.1,3.9-18.4,10.9-36,12c-27,1.7-50.7-20.8-51.3-52c-0.7-30.7,19.8-53.1,48-55.3c21-1.7,36.8,12.7,40.7,16
		c6.2-6.4,12.4-12.9,18.7-19.3c-4.7-4-26.5-21.6-58.7-20c-34.6,1.7-55.3,24.1-59,28.3c-4.3-9.3-8.3-18.7-12.7-28
		C281.7,92.4,272.9,91,263.5,91.7z"/>
	<path d="M287.9,373.9c-107.4,0-194.4,87.1-194.4,194.4s87.1,194.4,194.4,194.4s194.4-87.1,194.4-194.4S395.3,373.9,287.9,373.9z
		 M206.8,672.7c-10.4-0.1-20.9-0.2-31.3-0.3c0.1-40.6,0.2-81.1,0.3-121.7c-18.6-0.1-37.1-0.2-55.7-0.3c0.1-10.2,0.2-20.4,0.3-30.7
		c48.8,0.3,97.6,0.7,146.3,1c-4,10.1-8,20.2-12,30.3c-15.7-0.1-31.3-0.2-47-0.3C207.5,591.4,207.1,632.1,206.8,672.7z M375.2,673.4
		c-36.3-0.6-74.3-20.6-75.7-76.3c-0.1-3.9-0.2-7.2,0-9.7c-3.9-9.4-7.8-18.9-11.7-28.3c-15.3,37.8-30.7,75.6-46,113.3
		c-10.8-0.2-20.9,0.6-31.7,0.3c21.7-50,43.7-103,65.3-153c9.4-0.7,18.2,0.7,27.7,0c4.3,9.3,8.3,18.7,12.7,28
		c3.7-4.2,24.4-26.7,59-28.3c32.2-1.6,53.9,16,58.7,20c-6.2,6.4-12.4,12.9-18.7,19.3c-3.9-3.3-19.7-17.7-40.7-16
		c-28.2,2.2-48.7,24.7-48,55.3c0.7,31.2,24.3,53.7,51.3,52c17.6-1.1,30.9-8.1,36-12c-0.1-9.2-0.2-18.4-0.3-27.7
		c-12.6,0-25.1,0-37.7,0c5.6-7.2,11.1-14.4,16.7-21.7c15-0.2,30-0.4,45-0.7c0.1,20.8,0.2,41.6,0.3,62.3
		C429.5,659.7,408.4,673.9,375.2,673.4z"/>
</g>
<g id="Camada_4">
</g>
</svg>
