<?xml version="1.0" encoding="utf-8"?>
<!-- Generator: Adobe Illustrator 21.1.0, SVG Export Plug-In . SVG Version: 6.00 Build 0)  -->
<svg version="1.1" id="Camada_1" xmlns="http://www.w3.org/2000/svg" xmlns:xlink="http://www.w3.org/1999/xlink" x="0px" y="0px"
	 viewBox="0 0 582 585" style="enable-background:new 0 0 582 585;" xml:space="preserve">
<style type="text/css">
	.st0{fill:url(#SVGID_1_);enable-background:new    ;}
</style>
<linearGradient id="SVGID_1_" gradientUnits="userSpaceOnUse" x1="117.3082" y1="70.0984" x2="442.6502" y2="486.7645">
	<stop  offset="0" style="stop-color:#4BA2B5"/>
	<stop  offset="1" style="stop-color:#81AF70"/>
</linearGradient>
<path class="st0" d="M290.6,5.7C132.5,5.7,4.3,134,4.3,292.1c0,158.1,128.2,286.4,286.3,286.4c158.1,0,286.4-128.2,286.4-286.4
	C577,134,448.8,5.7,290.6,5.7z M411.9,404.9c-64.5,0-106.9-45.9-106.9-106v-0.6c0-4.4,0.3-8.7,0.8-13L290.6,248l-27.9,68.1h0.1
	l-23.6,58.1l0,0l-12.2,29.9h-46.5h-0.7h-45.6V236.6H57.7V194h204.8l-18.2,42.6h-63.9v166l89.4-210.1h42.6l16.2,38
	c18.9-23.5,48-38.8,82.7-38.8c35.9,0,58,10,79.2,28l-23,27.4c-15.9-13.5-31.5-22.1-57.7-22.1c-38,0-66.8,33.3-66.8,72.7v0.6
	c0,42.4,28,73.6,70.1,73.6c19.4,0,37.1-6.2,49.8-15.6v-38.6h-52.7l23.2-31.5h64.5v86.6C477.6,390.2,448.5,404.9,411.9,404.9z"/>
</svg>
